<?xml version="1.0" encoding="UTF-8" standalone="no"?>
<svg
   xmlns:dc="http://purl.org/dc/elements/1.1/"
   xmlns:cc="http://creativecommons.org/ns#"
   xmlns:rdf="http://www.w3.org/1999/02/22-rdf-syntax-ns#"
   xmlns:svg="http://www.w3.org/2000/svg"
   xmlns="http://www.w3.org/2000/svg"
   xmlns:sodipodi="http://sodipodi.sourceforge.net/DTD/sodipodi-0.dtd"
   xmlns:inkscape="http://www.inkscape.org/namespaces/inkscape"
   viewBox="0 0 24 24"
   version="1.1"
   id="svg100"
   sodipodi:docname="livepush.svg"
   inkscape:version="0.92.2 5c3e80d, 2017-08-06">
  <metadata
     id="metadata104">
    <rdf:RDF>
      <cc:Work
         rdf:about="">
        <dc:format>image/svg+xml</dc:format>
        <dc:type
           rdf:resource="http://purl.org/dc/dcmitype/StillImage" />
      </cc:Work>
    </rdf:RDF>
  </metadata>
  <sodipodi:namedview
     pagecolor="#ffffff"
     bordercolor="#666666"
     borderopacity="1"
     objecttolerance="10"
     gridtolerance="10"
     guidetolerance="10"
     inkscape:pageopacity="0"
     inkscape:pageshadow="2"
     inkscape:window-width="1997"
     inkscape:window-height="1281"
     id="namedview102"
     showgrid="false"
     inkscape:zoom="23.645833"
     inkscape:cx="7.6495909"
     inkscape:cy="11.885833"
     inkscape:window-x="1680"
     inkscape:window-y="0"
     inkscape:window-maximized="0"
     inkscape:current-layer="svg100" />
  <defs
     id="defs87">
    <style
       id="style85">.cls-1{fill:none;stroke:#000;stroke-linecap:round;stroke-linejoin:round;stroke-width:2px;}</style>
  </defs>
  <title
     id="title89">57.folder</title>
  <g
     id="_57.folder"
     data-name="57.folder"
     style="stroke:#808080">
    <path
       class="cls-1"
       d="M1,10V3A1.959,1.959,0,0,1,3,1h8a1.959,1.959,0,0,1,2,2h5a.979.979,0,0,1,1,1V7"
       id="path91"
       style="stroke:#808080" />
    <path
       class="cls-1"
       d="M8,7H20a3,3,0,0,1,3,3V20a3,3,0,0,1-3,3H12"
       id="path93"
       style="stroke:#808080" />
    <polyline
       class="cls-1"
       points="8 12 11 15 8 18"
       id="polyline95"
       style="stroke:#808080" />
    <path
       class="cls-1"
       d="M11,15H5a1.959,1.959,0,0,0-2,2v5"
       id="path97"
       style="stroke:#808080" />
  </g>
</svg>
