<?xml version="1.0" encoding="UTF-8" standalone="no"?> <svg xmlns="http://www.w3.org/2000/svg"  viewBox="0 0 24 24"><defs><style>.cls-1{fill:none;stroke:#000;stroke-linecap:round;stroke-linejoin:round;stroke-width:2px;}</style></defs><title>57.folder</title><g id="_57.folder" data-name="57.folder"><path class="cls-1" d="M1,10V3A1.959,1.959,0,0,1,3,1h8a1.959,1.959,0,0,1,2,2h5a.979.979,0,0,1,1,1V7"/><path class="cls-1" d="M8,7H20a3,3,0,0,1,3,3V20a3,3,0,0,1-3,3H12"/><polyline class="cls-1" points="8 12 11 15 8 18"/><path class="cls-1" d="M11,15H5a1.959,1.959,0,0,0-2,2v5"/></g></svg>