<?xml version="1.0" encoding="UTF-8" standalone="no"?>
<!-- Generator: Adobe Illustrator 23.0.3, SVG Export Plug-In . SVG Version: 6.00 Build 0)  -->

<svg
   xmlns:dc="http://purl.org/dc/elements/1.1/"
   xmlns:cc="http://creativecommons.org/ns#"
   xmlns:rdf="http://www.w3.org/1999/02/22-rdf-syntax-ns#"
   xmlns:svg="http://www.w3.org/2000/svg"
   xmlns="http://www.w3.org/2000/svg"
   xmlns:sodipodi="http://sodipodi.sourceforge.net/DTD/sodipodi-0.dtd"
   xmlns:inkscape="http://www.inkscape.org/namespaces/inkscape"
   version="1.1"
   id="Icons"
   x="0px"
   y="0px"
   viewBox="0 0 32 32"
   style="enable-background:new 0 0 32 32;"
   xml:space="preserve"
   sodipodi:docname="terminal.svg"
   inkscape:version="0.92.2 5c3e80d, 2017-08-06"><metadata
     id="metadata3887"><rdf:RDF><cc:Work
         rdf:about=""><dc:format>image/svg+xml</dc:format><dc:type
           rdf:resource="http://purl.org/dc/dcmitype/StillImage" /></cc:Work></rdf:RDF></metadata><defs
     id="defs3885" /><sodipodi:namedview
     pagecolor="#ffffff"
     bordercolor="#666666"
     borderopacity="1"
     objecttolerance="10"
     gridtolerance="10"
     guidetolerance="10"
     inkscape:pageopacity="0"
     inkscape:pageshadow="2"
     inkscape:window-width="1368"
     inkscape:window-height="994"
     id="namedview3883"
     showgrid="false"
     inkscape:zoom="14.75"
     inkscape:cx="10.814707"
     inkscape:cy="16.464262"
     inkscape:window-x="1680"
     inkscape:window-y="0"
     inkscape:window-maximized="0"
     inkscape:current-layer="Icons" /><style
     type="text/css"
     id="style3860">
	.st0{fill:none;stroke:#000000;stroke-width:2;stroke-linecap:round;stroke-linejoin:round;stroke-miterlimit:10;}
	.st1{fill:none;stroke:#000000;stroke-width:2;stroke-linejoin:round;stroke-miterlimit:10;}
</style><g
     id="g3899"
     transform="matrix(1.1314184,0,0,1.1092436,-2.0348984,-3.2733211)"><polyline
       style="fill:none;stroke:#808080;stroke-width:2;stroke-linecap:round;stroke-linejoin:round;stroke-miterlimit:10"
       id="polyline3862"
       points="8,15 11,18 8,21 "
       class="st0" /><line
       style="fill:none;stroke:#808080;stroke-width:2;stroke-linecap:round;stroke-linejoin:round;stroke-miterlimit:10"
       id="line3864"
       y2="11"
       x2="29"
       y1="11"
       x1="3"
       class="st0" /><path
       d="M 7,9 C 6.7,9 6.5,8.9 6.3,8.7 6.1,8.5 6,8.3 6,8 6,7.7 6.1,7.5 6.3,7.3 6.3,7.3 6.4,7.2 6.4,7.2 6.5,7.2 6.5,7.1 6.6,7.1 6.7,7 6.7,7 6.8,7 c 0.1,0 0.3,0 0.4,0 0.1,0 0.1,0 0.2,0.1 0.1,0 0.1,0.1 0.2,0.1 0,0 0.1,0.1 0.1,0.1 C 7.8,7.4 7.9,7.5 7.9,7.6 8,7.7 8,7.9 8,8 8,8.1 8,8.3 7.9,8.4 7.9,8.5 7.8,8.6 7.7,8.7 7.5,8.9 7.3,9 7,9 Z"
       id="path3866"
       style="fill:none;stroke:#808080"
       inkscape:connector-curvature="0" /><g
       style="fill:none;stroke:#808080"
       id="g3872"><path
         style="fill:none;stroke:#808080"
         id="path3870"
         d="M 10,9 C 9.7,9 9.5,8.9 9.3,8.7 9.1,8.5 9,8.3 9,8 9,7.9 9,7.7 9.1,7.6 9.2,7.5 9.2,7.4 9.3,7.3 9.4,7.2 9.5,7.1 9.6,7.1 10,6.9 10.4,7 10.7,7.3 10.8,7.4 10.9,7.5 10.9,7.6 11,7.7 11,7.9 11,8 11,8.3 10.9,8.5 10.7,8.7 10.5,8.9 10.3,9 10,9 Z"
         inkscape:connector-curvature="0" /></g><g
       style="fill:none;stroke:#808080"
       id="g3876"><path
         style="fill:none;stroke:#808080"
         id="path3874"
         d="M 13,9 C 12.9,9 12.7,9 12.6,8.9 12.5,8.8 12.4,8.8 12.3,8.7 12.2,8.6 12.1,8.5 12.1,8.4 12,8.3 12,8.1 12,8 c 0,-0.1 0,-0.3 0.1,-0.4 0.1,-0.1 0.1,-0.2 0.2,-0.3 0.4,-0.4 1,-0.4 1.4,0 0.1,0.1 0.2,0.2 0.2,0.3 C 14,7.7 14,7.9 14,8 14,8.1 14,8.3 13.9,8.4 13.8,8.5 13.8,8.6 13.7,8.7 13.5,8.9 13.3,9 13,9 Z"
         inkscape:connector-curvature="0" /></g><path
       style="fill:none;stroke:#808080;stroke-width:2;stroke-linecap:round;stroke-linejoin:round;stroke-miterlimit:10"
       id="path3878"
       d="M 27,5 H 5 C 3.9,5 3,5.9 3,7 v 18 c 0,1.1 0.9,2 2,2 h 22 c 1.1,0 2,-0.9 2,-2 V 7 C 29,5.9 28.1,5 27,5 Z"
       class="st0"
       inkscape:connector-curvature="0" /><line
       style="fill:none;stroke:#808080;stroke-width:2;stroke-linecap:round;stroke-linejoin:round;stroke-miterlimit:10"
       id="line3880"
       y2="21"
       x2="18"
       y1="21"
       x1="14"
       class="st0" /></g></svg>