<?xml version="1.0" encoding="UTF-8"?>
<svg width="67px" height="67px" viewBox="0 0 67 67" version="1.1" xmlns="http://www.w3.org/2000/svg" xmlns:xlink="http://www.w3.org/1999/xlink">
    <!-- Generator: Sketch 61.2 (89653) - https://sketch.com -->
    <title>unknown</title>
    <desc>Created with Sketch.</desc>
    <g id="unknown" stroke="none" stroke-width="1" fill="none" fill-rule="evenodd">
        <g fill-rule="nonzero">
            <path d="M1,41 L6,41 C6.55228475,41 7,40.5522847 7,40 C7,39.4477153 6.55228475,39 6,39 L1,39 C0.44771525,39 0,39.4477153 0,40 C0,40.5522847 0.44771525,41 1,41 Z" id="Line-Copy-64" fill="#527699"></path>
            <path d="M1,48 L6,48 C6.55228475,48 7,47.5522847 7,47 C7,46.4477153 6.55228475,46 6,46 L1,46 C0.44771525,46 0,46.4477153 0,47 C0,47.5522847 0.44771525,48 1,48 Z" id="Line-Copy-83" fill="#527699"></path>
            <path d="M1,55 L6,55 C6.55228475,55 7,54.5522847 7,54 C7,53.4477153 6.55228475,53 6,53 L1,53 C0.44771525,53 0,53.4477153 0,54 C0,54.5522847 0.44771525,55 1,55 Z" id="Line-Copy-84" fill="#527699"></path>
            <path d="M1,34 L6,34 C6.55228475,34 7,33.5522847 7,33 C7,32.4477153 6.55228475,32 6,32 L1,32 C0.44771525,32 0,32.4477153 0,33 C0,33.5522847 0.44771525,34 1,34 Z" id="Line-Copy-66" fill="#527699"></path>
            <path d="M1,27 L6,27 C6.55228475,27 7,26.5522847 7,26 C7,25.4477153 6.55228475,25 6,25 L1,25 C0.44771525,25 0,25.4477153 0,26 C0,26.5522847 0.44771525,27 1,27 Z" id="Line-Copy-68" fill="#527699"></path>
            <path d="M1,20 L6,20 C6.55228475,20 7,19.5522847 7,19 C7,18.4477153 6.55228475,18 6,18 L1,18 C0.44771525,18 0,18.4477153 0,19 C0,19.5522847 0.44771525,20 1,20 Z" id="Line-Copy-70" fill="#527699"></path>
            <path d="M1,13 L6,13 C6.55228475,13 7,12.5522847 7,12 C7,11.4477153 6.55228475,11 6,11 L1,11 C0.44771525,11 0,11.4477153 0,12 C0,12.5522847 0.44771525,13 1,13 Z" id="Line-Copy-76" fill="#527699"></path>
            <path d="M61,41 L66,41 C66.5522847,41 67,40.5522847 67,40 C67,39.4477153 66.5522847,39 66,39 L61,39 C60.4477153,39 60,39.4477153 60,40 C60,40.5522847 60.4477153,41 61,41 Z" id="Line-Copy-85" fill="#527699"></path>
            <path d="M61,48 L66,48 C66.5522847,48 67,47.5522847 67,47 C67,46.4477153 66.5522847,46 66,46 L61,46 C60.4477153,46 60,46.4477153 60,47 C60,47.5522847 60.4477153,48 61,48 Z" id="Line-Copy-86" fill="#527699"></path>
            <path d="M61,55 L66,55 C66.5522847,55 67,54.5522847 67,54 C67,53.4477153 66.5522847,53 66,53 L61,53 C60.4477153,53 60,53.4477153 60,54 C60,54.5522847 60.4477153,55 61,55 Z" id="Line-Copy-87" fill="#527699"></path>
            <path d="M61,34 L66,34 C66.5522847,34 67,33.5522847 67,33 C67,32.4477153 66.5522847,32 66,32 L61,32 C60.4477153,32 60,32.4477153 60,33 C60,33.5522847 60.4477153,34 61,34 Z" id="Line-Copy-88" fill="#527699"></path>
            <path d="M61,27 L66,27 C66.5522847,27 67,26.5522847 67,26 C67,25.4477153 66.5522847,25 66,25 L61,25 C60.4477153,25 60,25.4477153 60,26 C60,26.5522847 60.4477153,27 61,27 Z" id="Line-Copy-93" fill="#527699"></path>
            <path d="M61,20 L66,20 C66.5522847,20 67,19.5522847 67,19 C67,18.4477153 66.5522847,18 66,18 L61,18 C60.4477153,18 60,18.4477153 60,19 C60,19.5522847 60.4477153,20 61,20 Z" id="Line-Copy-144" fill="#527699"></path>
            <path d="M61,13 L66,13 C66.5522847,13 67,12.5522847 67,12 C67,11.4477153 66.5522847,11 66,11 L61,11 C60.4477153,11 60,11.4477153 60,12 C60,12.5522847 60.4477153,13 61,13 Z" id="Line-Copy-145" fill="#527699"></path>
            <path d="M24.5,4.5 L29.5,4.5 C30.0522847,4.5 30.5,4.05228475 30.5,3.5 C30.5,2.94771525 30.0522847,2.5 29.5,2.5 L24.5,2.5 C23.9477153,2.5 23.5,2.94771525 23.5,3.5 C23.5,4.05228475 23.9477153,4.5 24.5,4.5 Z" id="Line-Copy-64" fill="#527699" transform="translate(27.000000, 3.500000) rotate(-90.000000) translate(-27.000000, -3.500000) "></path>
            <path d="M17.5,4.5 L22.5,4.5 C23.0522847,4.5 23.5,4.05228475 23.5,3.5 C23.5,2.94771525 23.0522847,2.5 22.5,2.5 L17.5,2.5 C16.9477153,2.5 16.5,2.94771525 16.5,3.5 C16.5,4.05228475 16.9477153,4.5 17.5,4.5 Z" id="Line-Copy-83" fill="#527699" transform="translate(20.000000, 3.500000) rotate(-90.000000) translate(-20.000000, -3.500000) "></path>
            <path d="M10.5,4.5 L15.5,4.5 C16.0522847,4.5 16.5,4.05228475 16.5,3.5 C16.5,2.94771525 16.0522847,2.5 15.5,2.5 L10.5,2.5 C9.94771525,2.5 9.5,2.94771525 9.5,3.5 C9.5,4.05228475 9.94771525,4.5 10.5,4.5 Z" id="Line-Copy-84" fill="#527699" transform="translate(13.000000, 3.500000) rotate(-90.000000) translate(-13.000000, -3.500000) "></path>
            <path d="M31.5,4.5 L36.5,4.5 C37.0522847,4.5 37.5,4.05228475 37.5,3.5 C37.5,2.94771525 37.0522847,2.5 36.5,2.5 L31.5,2.5 C30.9477153,2.5 30.5,2.94771525 30.5,3.5 C30.5,4.05228475 30.9477153,4.5 31.5,4.5 Z" id="Line-Copy-66" fill="#527699" transform="translate(34.000000, 3.500000) rotate(-90.000000) translate(-34.000000, -3.500000) "></path>
            <path d="M38.5,4.5 L43.5,4.5 C44.0522847,4.5 44.5,4.05228475 44.5,3.5 C44.5,2.94771525 44.0522847,2.5 43.5,2.5 L38.5,2.5 C37.9477153,2.5 37.5,2.94771525 37.5,3.5 C37.5,4.05228475 37.9477153,4.5 38.5,4.5 Z" id="Line-Copy-146" fill="#527699" transform="translate(41.000000, 3.500000) rotate(-90.000000) translate(-41.000000, -3.500000) "></path>
            <path d="M45.5,4.5 L50.5,4.5 C51.0522847,4.5 51.5,4.05228475 51.5,3.5 C51.5,2.94771525 51.0522847,2.5 50.5,2.5 L45.5,2.5 C44.9477153,2.5 44.5,2.94771525 44.5,3.5 C44.5,4.05228475 44.9477153,4.5 45.5,4.5 Z" id="Line-Copy-147" fill="#527699" transform="translate(48.000000, 3.500000) rotate(-90.000000) translate(-48.000000, -3.500000) "></path>
            <path d="M52.5,4.5 L57.5,4.5 C58.0522847,4.5 58.5,4.05228475 58.5,3.5 C58.5,2.94771525 58.0522847,2.5 57.5,2.5 L52.5,2.5 C51.9477153,2.5 51.5,2.94771525 51.5,3.5 C51.5,4.05228475 51.9477153,4.5 52.5,4.5 Z" id="Line-Copy-148" fill="#527699" transform="translate(55.000000, 3.500000) rotate(-90.000000) translate(-55.000000, -3.500000) "></path>
            <path d="M24.5,64.5 L29.5,64.5 C30.0522847,64.5 30.5,64.0522847 30.5,63.5 C30.5,62.9477153 30.0522847,62.5 29.5,62.5 L24.5,62.5 C23.9477153,62.5 23.5,62.9477153 23.5,63.5 C23.5,64.0522847 23.9477153,64.5 24.5,64.5 Z" id="Line-Copy-85" fill="#527699" transform="translate(27.000000, 63.500000) rotate(-90.000000) translate(-27.000000, -63.500000) "></path>
            <path d="M17.5,64.5 L22.5,64.5 C23.0522847,64.5 23.5,64.0522847 23.5,63.5 C23.5,62.9477153 23.0522847,62.5 22.5,62.5 L17.5,62.5 C16.9477153,62.5 16.5,62.9477153 16.5,63.5 C16.5,64.0522847 16.9477153,64.5 17.5,64.5 Z" id="Line-Copy-86" fill="#527699" transform="translate(20.000000, 63.500000) rotate(-90.000000) translate(-20.000000, -63.500000) "></path>
            <path d="M10.5,64.5 L15.5,64.5 C16.0522847,64.5 16.5,64.0522847 16.5,63.5 C16.5,62.9477153 16.0522847,62.5 15.5,62.5 L10.5,62.5 C9.94771525,62.5 9.5,62.9477153 9.5,63.5 C9.5,64.0522847 9.94771525,64.5 10.5,64.5 Z" id="Line-Copy-87" fill="#527699" transform="translate(13.000000, 63.500000) rotate(-90.000000) translate(-13.000000, -63.500000) "></path>
            <path d="M31.5,64.5 L36.5,64.5 C37.0522847,64.5 37.5,64.0522847 37.5,63.5 C37.5,62.9477153 37.0522847,62.5 36.5,62.5 L31.5,62.5 C30.9477153,62.5 30.5,62.9477153 30.5,63.5 C30.5,64.0522847 30.9477153,64.5 31.5,64.5 Z" id="Line-Copy-88" fill="#527699" transform="translate(34.000000, 63.500000) rotate(-90.000000) translate(-34.000000, -63.500000) "></path>
            <path d="M38.5,64.5 L43.5,64.5 C44.0522847,64.5 44.5,64.0522847 44.5,63.5 C44.5,62.9477153 44.0522847,62.5 43.5,62.5 L38.5,62.5 C37.9477153,62.5 37.5,62.9477153 37.5,63.5 C37.5,64.0522847 37.9477153,64.5 38.5,64.5 Z" id="Line-Copy-89" fill="#527699" transform="translate(41.000000, 63.500000) rotate(-90.000000) translate(-41.000000, -63.500000) "></path>
            <path d="M45.5,64.5 L50.5,64.5 C51.0522847,64.5 51.5,64.0522847 51.5,63.5 C51.5,62.9477153 51.0522847,62.5 50.5,62.5 L45.5,62.5 C44.9477153,62.5 44.5,62.9477153 44.5,63.5 C44.5,64.0522847 44.9477153,64.5 45.5,64.5 Z" id="Line-Copy-90" fill="#527699" transform="translate(48.000000, 63.500000) rotate(-90.000000) translate(-48.000000, -63.500000) "></path>
            <path d="M52.5,64.5 L57.5,64.5 C58.0522847,64.5 58.5,64.0522847 58.5,63.5 C58.5,62.9477153 58.0522847,62.5 57.5,62.5 L52.5,62.5 C51.9477153,62.5 51.5,62.9477153 51.5,63.5 C51.5,64.0522847 51.9477153,64.5 52.5,64.5 Z" id="Line-Copy-91" fill="#527699" transform="translate(55.000000, 63.500000) rotate(-90.000000) translate(-55.000000, -63.500000) "></path>
            <path d="M11,8 C9.34314575,8 8,9.34314575 8,11 L8,56 C8,57.6568542 9.34314575,59 11,59 L56,59 C57.6568542,59 59,57.6568542 59,56 L59,11 C59,9.34314575 57.6568542,8 56,8 L11,8 Z M11,6 L56,6 C58.7614237,6 61,8.23857625 61,11 L61,56 C61,58.7614237 58.7614237,61 56,61 L11,61 C8.23857625,61 6,58.7614237 6,56 L6,11 C6,8.23857625 8.23857625,6 11,6 Z" id="Rectangle-4" fill="#527699"></path>
            <rect id="Rectangle-4-Copy-4" fill="#FFC83D" x="17" y="17" width="34" height="34" rx="3"></rect>
            <path d="M20,18 C19.4477153,18 19,17.5522847 19,17 C19,16.4477153 19.4477153,16 20,16 L21,16 C21.5522847,16 22,16.4477153 22,17 C22,17.5522847 21.5522847,18 21,18 L20,18 Z M25,18 L26,18 C26.5522847,18 27,17.5522847 27,17 C27,16.4477153 26.5522847,16 26,16 L25,16 C24.4477153,16 24,16.4477153 24,17 C24,17.5522847 24.4477153,18 25,18 Z M30,18 L31,18 C31.5522847,18 32,17.5522847 32,17 C32,16.4477153 31.5522847,16 31,16 L30,16 C29.4477153,16 29,16.4477153 29,17 C29,17.5522847 29.4477153,18 30,18 Z M35,18 L36,18 C36.5522847,18 37,17.5522847 37,17 C37,16.4477153 36.5522847,16 36,16 L35,16 C34.4477153,16 34,16.4477153 34,17 C34,17.5522847 34.4477153,18 35,18 Z M40,18 L41,18 C41.5522847,18 42,17.5522847 42,17 C42,16.4477153 41.5522847,16 41,16 L40,16 C39.4477153,16 39,16.4477153 39,17 C39,17.5522847 39.4477153,18 40,18 Z M45,18 L46,18 C46.5522847,18 47,17.5522847 47,17 C47,16.4477153 46.5522847,16 46,16 L45,16 C44.4477153,16 44,16.4477153 44,17 C44,17.5522847 44.4477153,18 45,18 Z M49.2566963,18.4440057 C49.4310268,18.5850671 49.5808866,18.7544857 49.6993169,18.9445605 C49.9913771,19.4133027 50.6081294,19.5565317 51.0768716,19.2644715 C51.5456138,18.9724112 51.6888428,18.355659 51.3967826,17.8869168 C51.1604518,17.5076177 50.8620187,17.1702348 50.5147515,16.8892399 C50.0854148,16.5418375 49.4557433,16.6082584 49.108341,17.0375952 C48.7609386,17.4669319 48.8273595,18.0966034 49.2566963,18.4440057 Z M50,22.4077988 L50,23.4077988 C50,23.9600836 50.4477153,24.4077988 51,24.4077988 C51.5522847,24.4077988 52,23.9600836 52,23.4077988 L52,22.4077988 C52,21.8555141 51.5522847,21.4077988 51,21.4077988 C50.4477153,21.4077988 50,21.8555141 50,22.4077988 Z M50,27.4077988 L50,28.4077988 C50,28.9600836 50.4477153,29.4077988 51,29.4077988 C51.5522847,29.4077988 52,28.9600836 52,28.4077988 L52,27.4077988 C52,26.8555141 51.5522847,26.4077988 51,26.4077988 C50.4477153,26.4077988 50,26.8555141 50,27.4077988 Z M50,32.4077988 L50,33.4077988 C50,33.9600836 50.4477153,34.4077988 51,34.4077988 C51.5522847,34.4077988 52,33.9600836 52,33.4077988 L52,32.4077988 C52,31.8555141 51.5522847,31.4077988 51,31.4077988 C50.4477153,31.4077988 50,31.8555141 50,32.4077988 Z M50,37.4077988 L50,38.4077988 C50,38.9600836 50.4477153,39.4077988 51,39.4077988 C51.5522847,39.4077988 52,38.9600836 52,38.4077988 L52,37.4077988 C52,36.8555141 51.5522847,36.4077988 51,36.4077988 C50.4477153,36.4077988 50,36.8555141 50,37.4077988 Z M50,42.4077988 L50,43.4077988 C50,43.9600836 50.4477153,44.4077988 51,44.4077988 C51.5522847,44.4077988 52,43.9600836 52,43.4077988 L52,42.4077988 C52,41.8555141 51.5522847,41.4077988 51,41.4077988 C50.4477153,41.4077988 50,41.8555141 50,42.4077988 Z M50,47.4077988 L50,48 C50,48.091994 49.9938552,48.1829271 49.9817125,48.2724895 C49.9075136,48.8197672 50.2910198,49.3235736 50.8382976,49.3977726 C51.3855754,49.4719715 51.8893818,49.0884653 51.9635807,48.5411875 C51.9877891,48.3626304 52,48.1819285 52,48 L52,47.4077988 C52,46.8555141 51.5522847,46.4077988 51,46.4077988 C50.4477153,46.4077988 50,46.8555141 50,47.4077988 Z M48.1335081,49.9956516 C48.0924943,49.9983346 48.0512366,49.9997808 48.0097618,49.9999769 L47.1843611,50 C46.6320764,50.0000228 46.1844024,50.4477565 46.1844024,51.0000413 C46.1844024,51.552326 46.6321589,52.0000228 47.1844436,52 L48.0145323,51.9999657 C48.1011015,51.9995673 48.1827428,51.9967056 48.2640618,51.991386 C48.8151686,51.9553346 49.2327035,51.4793488 49.1966521,50.928242 C49.1606007,50.3771351 48.6846149,49.9596002 48.1335081,49.9956516 Z M43.1844024,50 L42.1844024,50 C41.6321176,50 41.1844024,50.4477153 41.1844024,51 C41.1844024,51.5522847 41.6321176,52 42.1844024,52 L43.1844024,52 C43.7366871,52 44.1844024,51.5522847 44.1844024,51 C44.1844024,50.4477153 43.7366871,50 43.1844024,50 Z M38.1844024,50 L37.1844024,50 C36.6321176,50 36.1844024,50.4477153 36.1844024,51 C36.1844024,51.5522847 36.6321176,52 37.1844024,52 L38.1844024,52 C38.7366871,52 39.1844024,51.5522847 39.1844024,51 C39.1844024,50.4477153 38.7366871,50 38.1844024,50 Z M33.1844024,50 L32.1844024,50 C31.6321176,50 31.1844024,50.4477153 31.1844024,51 C31.1844024,51.5522847 31.6321176,52 32.1844024,52 L33.1844024,52 C33.7366871,52 34.1844024,51.5522847 34.1844024,51 C34.1844024,50.4477153 33.7366871,50 33.1844024,50 Z M28.1844024,50 L27.1844024,50 C26.6321176,50 26.1844024,50.4477153 26.1844024,51 C26.1844024,51.5522847 26.6321176,52 27.1844024,52 L28.1844024,52 C28.7366871,52 29.1844024,51.5522847 29.1844024,51 C29.1844024,50.4477153 28.7366871,50 28.1844024,50 Z M23.1844024,50 L22.1844024,50 C21.6321176,50 21.1844024,50.4477153 21.1844024,51 C21.1844024,51.5522847 21.6321176,52 22.1844024,52 L23.1844024,52 C23.7366871,52 24.1844024,51.5522847 24.1844024,51 C24.1844024,50.4477153 23.7366871,50 23.1844024,50 Z M18.8469422,49.634455 C18.6639692,49.5050196 18.5034856,49.3455385 18.3728901,49.1633719 C18.051104,48.7145154 17.4263747,48.6115046 16.9775182,48.9332907 C16.5286617,49.2550768 16.4256508,49.879806 16.747437,50.3286625 C17.0077269,50.6917385 17.3272034,51.0092195 17.6919204,51.267221 C18.1427962,51.5861714 18.7668638,51.4792248 19.0858142,51.0283489 C19.4047647,50.577473 19.297818,49.9534055 18.8469422,49.634455 Z M18,45.7766036 L18,44.7766036 C18,44.2243188 17.5522847,43.7766036 17,43.7766036 C16.4477153,43.7766036 16,44.2243188 16,44.7766036 L16,45.7766036 C16,46.3288883 16.4477153,46.7766036 17,46.7766036 C17.5522847,46.7766036 18,46.3288883 18,45.7766036 Z M18,40.7766036 L18,39.7766036 C18,39.2243188 17.5522847,38.7766036 17,38.7766036 C16.4477153,38.7766036 16,39.2243188 16,39.7766036 L16,40.7766036 C16,41.3288883 16.4477153,41.7766036 17,41.7766036 C17.5522847,41.7766036 18,41.3288883 18,40.7766036 Z M18,35.7766036 L18,34.7766036 C18,34.2243188 17.5522847,33.7766036 17,33.7766036 C16.4477153,33.7766036 16,34.2243188 16,34.7766036 L16,35.7766036 C16,36.3288883 16.4477153,36.7766036 17,36.7766036 C17.5522847,36.7766036 18,36.3288883 18,35.7766036 Z M18,30.7766036 L18,29.7766036 C18,29.2243188 17.5522847,28.7766036 17,28.7766036 C16.4477153,28.7766036 16,29.2243188 16,29.7766036 L16,30.7766036 C16,31.3288883 16.4477153,31.7766036 17,31.7766036 C17.5522847,31.7766036 18,31.3288883 18,30.7766036 Z M18,25.7766036 L18,24.7766036 C18,24.2243188 17.5522847,23.7766036 17,23.7766036 C16.4477153,23.7766036 16,24.2243188 16,24.7766036 L16,25.7766036 C16,26.3288883 16.4477153,26.7766036 17,26.7766036 C17.5522847,26.7766036 18,26.3288883 18,25.7766036 Z M18,20.7766036 L18,20 C18,19.9497109 18.0018363,19.8997374 18.0054854,19.8501276 C18.0459999,19.2993309 17.6323344,18.8199785 17.0815377,18.779464 C16.5307409,18.7389496 16.0513885,19.1526151 16.0108741,19.7034118 C16.0036346,19.8018327 16,19.9007444 16,20 L16,20.7766036 C16,21.3288883 16.4477153,21.7766036 17,21.7766036 C17.5522847,21.7766036 18,21.3288883 18,20.7766036 Z M19.7349248,18.0172964 C19.1873734,18.0894478 18.6850049,17.7040599 18.6128535,17.1565085 C18.540702,16.608957 18.9260899,16.1065885 19.4736414,16.0344371 C19.6352833,16.0131374 19.7986654,16.0016608 19.963107,16.0001675 C20.515369,15.9951521 20.9671315,16.4387832 20.9721469,16.9910452 C20.9771622,17.5433071 20.5335311,17.9950697 19.9812692,18.000085 C19.8981926,18.0008395 19.8160011,18.0066129 19.7349248,18.0172964 Z" id="Rectangle-4-Copy-3" fill="#527699"></path>
        </g>
    </g>
</svg>